<svg width="259" height="115" viewBox="0 0 259 115" fill="none" xmlns="http://www.w3.org/2000/svg">
<path d="M120.636 0.3125V7.4375H99.5107V18.6875H119.573V26.0938H99.417V45H91.292V0.3125H120.636ZM127.667 45V0.3125H147.667C156.792 0.3125 161.354 4.51042 161.354 12.9062C161.354 22.0104 155.115 27.5208 142.636 29.4375L141.448 22.0625C148.948 20.7083 152.698 17.7396 152.698 13.1562C152.698 9.44792 150.844 7.59375 147.136 7.59375H135.948V45H127.667Z" fill="#FB6100"/>
<path d="M115.255 64.7207H118.639L118.188 66.9766H114.804L113.171 75.1406C112.713 77.418 111.688 79.2728 110.099 80.7051L108.176 79.1475C109.264 78.1807 109.98 76.8451 110.324 75.1406L112.408 64.7207C113.024 61.627 115.022 60.0801 118.402 60.0801C119.326 60.0801 120.135 60.2233 120.83 60.5098L120.379 62.7656C119.727 62.4792 118.914 62.3359 117.94 62.3359C116.465 62.3359 115.57 63.1309 115.255 64.7207ZM121.292 70.3174C120.819 72.6735 121.46 73.8516 123.215 73.8516C124.969 73.8516 126.083 72.6735 126.556 70.3174C127.014 68.0186 126.366 66.8691 124.611 66.8691C122.857 66.8691 121.75 68.0186 121.292 70.3174ZM118.435 70.3604C119.201 66.529 121.41 64.6133 125.062 64.6133C128.715 64.6133 130.158 66.529 129.392 70.3604C128.625 74.1846 126.416 76.0967 122.764 76.0967C119.126 76.0967 117.683 74.1846 118.435 70.3604ZM130.412 76L132.668 64.7207H135.192L134.795 68.3086C136.07 65.9167 137.438 64.7207 138.898 64.7207L138.415 67.127C136.997 67.127 135.64 68.2835 134.344 70.5967L133.259 76H130.412ZM23.3438 77.6738L22.9746 79.5195H12.9258L7.42969 107H5.27637L10.7725 79.5195H0.928711L1.29785 77.6738H23.3438ZM20.9854 105.975L21.4365 103.719C24.2939 104.812 27.5752 105.359 31.2803 105.359C37.4189 105.359 40.9531 103.035 41.8828 98.3867C42.5664 94.9688 40.9121 93.2598 36.9199 93.2598H30.8906C25.4355 93.2598 23.2002 90.7988 24.1846 85.877C25.3057 80.2715 29.8652 77.4688 37.8633 77.4688C41.1445 77.4688 44.2412 77.8789 47.1533 78.6992L46.7432 80.75C43.8584 79.793 40.7754 79.3145 37.4941 79.3145C30.9316 79.3145 27.2129 81.502 26.3379 85.877C25.627 89.4316 27.2812 91.209 31.3008 91.209H37.3301C42.7578 91.209 44.9932 93.6016 44.0361 98.3867C42.8604 104.266 38.4854 107.205 30.9111 107.205C27.2061 107.205 23.8975 106.795 20.9854 105.975ZM74.6543 107H72.9111L73.5264 101.873C70.6826 105.291 67.6475 107 64.4209 107C59.5264 107 57.79 103.438 59.2119 96.3154C60.6611 89.083 64.7012 85.4668 71.332 85.4668C73.3281 85.4668 75.126 85.6035 76.7256 85.877L78.3662 77.6738H80.5195L74.6543 107ZM76.3154 87.8867C74.5381 87.5586 72.6924 87.3945 70.7783 87.3945C65.6514 87.3945 62.5 90.3545 61.3242 96.2744C60.1621 102.058 61.3379 104.949 64.8516 104.949C68.1875 104.949 71.2227 103.213 73.957 99.7402L76.3154 87.8867ZM94.2188 85.4668C99.4414 85.4668 101.677 87.3398 100.925 91.0859C100.146 94.9688 97.2266 96.9102 92.168 96.9102H84.375C83.2812 102.406 85.3047 105.154 90.4453 105.154C93.3027 105.154 95.873 104.197 98.1562 102.283L97.7461 104.334C95.4902 106.111 92.9336 107 90.0762 107C83.5 107 80.9434 103.329 82.4062 95.9873C83.8145 88.9736 87.752 85.4668 94.2188 85.4668ZM84.7646 94.9824H92.5166C96.167 94.9824 98.2588 93.6631 98.792 91.0244C99.2842 88.5225 97.6367 87.2715 93.8496 87.2715C89.0645 87.2715 86.0361 89.8418 84.7646 94.9824ZM104.534 85.4668H106.995L110.933 105.134L122.786 85.4668H125.247L111.773 107H109.271L104.534 85.4668ZM137.408 85.4668C142.631 85.4668 144.866 87.3398 144.114 91.0859C143.335 94.9688 140.416 96.9102 135.357 96.9102H127.564C126.471 102.406 128.494 105.154 133.635 105.154C136.492 105.154 139.062 104.197 141.346 102.283L140.936 104.334C138.68 106.111 136.123 107 133.266 107C126.689 107 124.133 103.329 125.596 95.9873C127.004 88.9736 130.941 85.4668 137.408 85.4668ZM127.954 94.9824H135.706C139.356 94.9824 141.448 93.6631 141.981 91.0244C142.474 88.5225 140.826 87.2715 137.039 87.2715C132.254 87.2715 129.226 89.8418 127.954 94.9824ZM154.922 77.6738L149.057 107H146.903L152.769 77.6738H154.922ZM159.352 96.1514C158.121 102.29 160.001 105.359 164.991 105.359C169.981 105.359 173.092 102.29 174.322 96.1514C175.525 90.1221 173.632 87.1074 168.642 87.1074C163.651 87.1074 160.555 90.1221 159.352 96.1514ZM157.178 96.2334C158.641 88.9189 162.585 85.2617 169.011 85.2617C175.437 85.2617 177.918 88.9189 176.455 96.2334C174.992 103.534 171.048 107.185 164.622 107.185C158.224 107.185 155.742 103.534 157.178 96.2334ZM182.505 104.478C184.761 104.874 186.777 105.072 188.555 105.072C193.34 105.072 196.375 101.866 197.66 95.4541C198.713 90.1631 197.551 87.5176 194.174 87.5176C191.248 87.5176 188.138 89.2539 184.843 92.7266L182.505 104.478ZM184.146 85.4873H185.889L185.273 90.5938C188.678 87.1758 191.856 85.4668 194.81 85.4668C199.431 85.4668 201.064 88.8438 199.711 95.5977C198.193 103.199 194.406 107 188.35 107C186.094 107 184.009 106.843 182.095 106.528L180.434 114.793H178.28L184.146 85.4873ZM215.953 85.4668C221.176 85.4668 223.411 87.3398 222.659 91.0859C221.88 94.9688 218.961 96.9102 213.902 96.9102H206.109C205.016 102.406 207.039 105.154 212.18 105.154C215.037 105.154 217.607 104.197 219.891 102.283L219.48 104.334C217.225 106.111 214.668 107 211.811 107C205.234 107 202.678 103.329 204.141 95.9873C205.549 88.9736 209.486 85.4668 215.953 85.4668ZM206.499 94.9824H214.251C217.901 94.9824 219.993 93.6631 220.526 91.0244C221.019 88.5225 219.371 87.2715 215.584 87.2715C210.799 87.2715 207.771 89.8418 206.499 94.9824ZM225.038 107L229.345 85.4668H231.088L229.96 93.1367C232.913 88.0234 236.058 85.4668 239.394 85.4668L238.963 87.5996C235.709 87.5996 232.585 90.0811 229.591 95.0439L227.191 107H225.038ZM238.901 105.975L239.312 103.924C241.54 104.744 243.81 105.154 246.12 105.154C250.646 105.154 253.195 103.719 253.77 100.848C254.234 98.5234 252.792 97.3613 249.442 97.3613H246.776C242.265 97.3613 240.392 95.4473 241.157 91.6191C241.978 87.5176 245.375 85.4668 251.35 85.4668C253.646 85.4668 255.923 85.8086 258.179 86.4922L257.769 88.543C255.54 87.7227 253.277 87.3125 250.98 87.3125C246.441 87.3125 243.885 88.748 243.311 91.6191C242.818 94.0801 244.11 95.3105 247.187 95.3105H249.853C254.638 95.3105 256.661 97.1562 255.923 100.848C255.103 104.949 251.712 107 245.751 107C243.44 107 241.157 106.658 238.901 105.975Z" fill="#F5F3F1"/>
</svg>
